<?xml version="1.0" encoding="us-ascii" standalone="no"?><svg xmlns="http://www.w3.org/2000/svg" xmlns:xlink="http://www.w3.org/1999/xlink" contentStyleType="text/css" height="1123px" preserveAspectRatio="none" style="width:898px;height:1123px;background:#FFFFFF;" version="1.1" viewBox="0 0 898 1123" width="898px" zoomAndPan="magnify"><defs/><g><!--class Invoice--><g id="elem_Invoice"><rect codeLine="5" fill="#FFFFFF" height="435.3369" id="Invoice" rx="2.5" ry="2.5" style="stroke:#000000;stroke-width:1.0;" width="165" x="509" y="681"/><ellipse cx="563.25" cy="695" fill="#FFFFFF" rx="9" ry="9" style="stroke:#000000;stroke-width:1.0;"/><path d="M566.0156,696.5313 L568.4063,697.2813 Q567.8594,699.2656 566.5781,700.2344 Q565.3125,701.2031 563.3438,701.2031 Q560.9219,701.2031 559.3594,699.5469 Q557.8125,697.8906 557.8125,695.0156 Q557.8125,691.9844 559.375,690.3125 Q560.9375,688.625 563.5,688.625 Q565.7344,688.625 567.125,689.9375 Q567.9531,690.7188 568.375,692.1875 L565.9375,692.7656 Q565.7188,691.8125 565.0313,691.2656 Q564.3594,690.7188 563.375,690.7188 Q562.0156,690.7188 561.1719,691.7031 Q560.3438,692.6719 560.3438,694.8438 Q560.3438,697.1406 561.1719,698.125 Q562,699.1094 563.3281,699.1094 Q564.3125,699.1094 565.0156,698.4844 Q565.7188,697.8594 566.0156,696.5313 Z " fill="#000000"/><text fill="#000000" font-family="Verdana" font-size="14" lengthAdjust="spacing" textLength="49" x="580.75" y="700.5679">Invoice</text><line style="stroke:#000000;stroke-width:1.0;" x1="510" x2="673" y1="709" y2="709"/><text fill="#000000" font-family="Verdana" font-size="14" lengthAdjust="spacing" textLength="69" x="515" y="727.0752">STNO: int</text><text fill="#000000" font-family="Verdana" font-size="14" lengthAdjust="spacing" textLength="78" x="515" y="744.0898">BOSFX: int</text><text fill="#000000" font-family="Verdana" font-size="14" lengthAdjust="spacing" textLength="68" x="515" y="761.1045">LNNO: int</text><text fill="#000000" font-family="Verdana" font-size="14" lengthAdjust="spacing" textLength="69" x="515" y="778.1191">SOS1: int</text><text fill="#000000" font-family="Verdana" font-size="14" lengthAdjust="spacing" textLength="70" x="515" y="795.1338">ORQY: int</text><text fill="#000000" font-family="Verdana" font-size="14" lengthAdjust="spacing" textLength="85" x="515" y="812.1484">BOIMCT: int</text><text fill="#000000" font-family="Verdana" font-size="14" lengthAdjust="spacing" textLength="76" x="515" y="829.1631">SPQTY: int</text><text fill="#000000" font-family="Verdana" font-size="14" lengthAdjust="spacing" textLength="143" x="515" y="846.1777">DateEntry: datetime</text><text fill="#000000" font-family="Verdana" font-size="14" lengthAdjust="spacing" textLength="117" x="515" y="863.1924">IsCompleted: bit</text><text fill="#000000" font-family="Verdana" font-size="14" lengthAdjust="spacing" textLength="94" x="515" y="880.207">InvoiceID: int</text><line style="stroke:#000000;stroke-width:1.0;" x1="510" x2="673" y1="887.1465" y2="887.1465"/><text fill="#000000" font-family="Verdana" font-size="14" lengthAdjust="spacing" textLength="116" x="515" y="905.2217">SLSTYP: char(1)</text><text fill="#000000" font-family="Verdana" font-size="14" lengthAdjust="spacing" textLength="141" x="515" y="922.2363">ENDT8: varchar(10)</text><text fill="#000000" font-family="Verdana" font-size="14" lengthAdjust="spacing" textLength="114" x="515" y="939.251">DOCSU: char(1)</text><text fill="#000000" font-family="Verdana" font-size="14" lengthAdjust="spacing" textLength="153" x="515" y="956.2656">RFDCNO: varchar(20)</text><text fill="#000000" font-family="Verdana" font-size="14" lengthAdjust="spacing" textLength="150" x="515" y="973.2803">PANO20: varchar(50)</text><text fill="#000000" font-family="Verdana" font-size="14" lengthAdjust="spacing" textLength="132" x="515" y="990.2949">DS18: varchar(50)</text><text fill="#000000" font-family="Verdana" font-size="14" lengthAdjust="spacing" textLength="134" x="515" y="1007.3096">TRXCD: varchar(5)</text><text fill="#000000" font-family="Verdana" font-size="14" lengthAdjust="spacing" textLength="146" x="515" y="1024.3242">UNCS: decimal(12,3)</text><text fill="#000000" font-family="Verdana" font-size="14" lengthAdjust="spacing" textLength="144" x="515" y="1041.3389">UNLS: decimal(12,3)</text><text fill="#000000" font-family="Verdana" font-size="14" lengthAdjust="spacing" textLength="153" x="515" y="1058.3535">UNSEL: decimal(12,3)</text><text fill="#000000" font-family="Verdana" font-size="14" lengthAdjust="spacing" textLength="151" x="515" y="1075.3682">WTUM: decimal(12,3)</text><text fill="#000000" font-family="Verdana" font-size="14" lengthAdjust="spacing" textLength="143" x="515" y="1092.3828">CUNM: varchar(100)</text><text fill="#000000" font-family="Verdana" font-size="14" lengthAdjust="spacing" textLength="147" x="515" y="1109.3975">SPVIDS: varchar(50)</text></g><!--class Rol--><g id="elem_Rol"><rect codeLine="30" fill="#FFFFFF" height="129.0732" id="Rol" rx="2.5" ry="2.5" style="stroke:#000000;stroke-width:1.0;" width="193" x="12" y="466.5"/><ellipse cx="93.75" cy="480.5" fill="#FFFFFF" rx="9" ry="9" style="stroke:#000000;stroke-width:1.0;"/><path d="M96.5156,482.0313 L98.9063,482.7813 Q98.3594,484.7656 97.0781,485.7344 Q95.8125,486.7031 93.8438,486.7031 Q91.4219,486.7031 89.8594,485.0469 Q88.3125,483.3906 88.3125,480.5156 Q88.3125,477.4844 89.875,475.8125 Q91.4375,474.125 94,474.125 Q96.2344,474.125 97.625,475.4375 Q98.4531,476.2188 98.875,477.6875 L96.4375,478.2656 Q96.2188,477.3125 95.5313,476.7656 Q94.8594,476.2188 93.875,476.2188 Q92.5156,476.2188 91.6719,477.2031 Q90.8438,478.1719 90.8438,480.3438 Q90.8438,482.6406 91.6719,483.625 Q92.5,484.6094 93.8281,484.6094 Q94.8125,484.6094 95.5156,483.9844 Q96.2188,483.3594 96.5156,482.0313 Z " fill="#000000"/><text fill="#000000" font-family="Verdana" font-size="14" lengthAdjust="spacing" textLength="22" x="111.25" y="486.0679">Rol</text><line style="stroke:#000000;stroke-width:1.0;" x1="13" x2="204" y1="494.5" y2="494.5"/><text fill="#000000" font-family="Verdana" font-size="14" lengthAdjust="spacing" textLength="160" x="18" y="512.5752">DateCreated: datetime</text><text fill="#000000" font-family="Verdana" font-size="14" lengthAdjust="spacing" textLength="162" x="18" y="529.5898">DateModified: datetime</text><text fill="#000000" font-family="Verdana" font-size="14" lengthAdjust="spacing" textLength="43" x="18" y="546.6045">Id: int</text><line style="stroke:#000000;stroke-width:1.0;" x1="13" x2="204" y1="553.5439" y2="553.5439"/><text fill="#000000" font-family="Verdana" font-size="14" lengthAdjust="spacing" textLength="132" x="18" y="571.6191">Name: varchar(50)</text><text fill="#000000" font-family="Verdana" font-size="14" lengthAdjust="spacing" textLength="181" x="18" y="588.6338">Description: varchar(255)</text></g><!--class Task--><g id="elem_Task"><rect codeLine="37" fill="#FFFFFF" height="180.1172" id="Task" rx="2.5" ry="2.5" style="stroke:#000000;stroke-width:1.0;" width="271" x="456" y="441"/><ellipse cx="571.25" cy="455" fill="#FFFFFF" rx="9" ry="9" style="stroke:#000000;stroke-width:1.0;"/><path d="M574.0156,456.5313 L576.4063,457.2813 Q575.8594,459.2656 574.5781,460.2344 Q573.3125,461.2031 571.3438,461.2031 Q568.9219,461.2031 567.3594,459.5469 Q565.8125,457.8906 565.8125,455.0156 Q565.8125,451.9844 567.375,450.3125 Q568.9375,448.625 571.5,448.625 Q573.7344,448.625 575.125,449.9375 Q575.9531,450.7188 576.375,452.1875 L573.9375,452.7656 Q573.7188,451.8125 573.0313,451.2656 Q572.3594,450.7188 571.375,450.7188 Q570.0156,450.7188 569.1719,451.7031 Q568.3438,452.6719 568.3438,454.8438 Q568.3438,457.1406 569.1719,458.125 Q570,459.1094 571.3281,459.1094 Q572.3125,459.1094 573.0156,458.4844 Q573.7188,457.8594 574.0156,456.5313 Z " fill="#000000"/><text fill="#000000" font-family="Verdana" font-size="14" lengthAdjust="spacing" textLength="33" x="588.75" y="460.5679">Task</text><line style="stroke:#000000;stroke-width:1.0;" x1="457" x2="726" y1="469" y2="469"/><text fill="#000000" font-family="Verdana" font-size="14" lengthAdjust="spacing" textLength="160" x="462" y="487.0752">CreatedDate: datetime</text><text fill="#000000" font-family="Verdana" font-size="14" lengthAdjust="spacing" textLength="78" x="462" y="504.0898">Invoice: int</text><text fill="#000000" font-family="Verdana" font-size="14" lengthAdjust="spacing" textLength="106" x="462" y="521.1045">IsAssigned: bit</text><text fill="#000000" font-family="Verdana" font-size="14" lengthAdjust="spacing" textLength="78" x="462" y="538.1191">TaskID: int</text><line style="stroke:#000000;stroke-width:1.0;" x1="457" x2="726" y1="545.0586" y2="545.0586"/><text fill="#000000" font-family="Verdana" font-size="14" lengthAdjust="spacing" textLength="190" x="462" y="563.1338">Description: nvarchar(255)</text><text fill="#000000" font-family="Verdana" font-size="14" lengthAdjust="spacing" textLength="188" x="462" y="580.1484">CREATEDBy: nvarchar(50)</text><text fill="#000000" font-family="Verdana" font-size="14" lengthAdjust="spacing" textLength="162" x="462" y="597.1631">TaskCode: varchar(20)</text><text fill="#000000" font-family="Verdana" font-size="14" lengthAdjust="spacing" textLength="259" x="462" y="614.1777">WarehouseComment: nvarchar(600)</text></g><!--class TaskAssignment--><g id="elem_TaskAssignment"><rect codeLine="47" fill="#FFFFFF" height="180.1172" id="TaskAssignment" rx="2.5" ry="2.5" style="stroke:#000000;stroke-width:1.0;" width="220" x="412.5" y="201"/><ellipse cx="460.75" cy="215" fill="#FFFFFF" rx="9" ry="9" style="stroke:#000000;stroke-width:1.0;"/><path d="M463.5156,216.5313 L465.9063,217.2813 Q465.3594,219.2656 464.0781,220.2344 Q462.8125,221.2031 460.8438,221.2031 Q458.4219,221.2031 456.8594,219.5469 Q455.3125,217.8906 455.3125,215.0156 Q455.3125,211.9844 456.875,210.3125 Q458.4375,208.625 461,208.625 Q463.2344,208.625 464.625,209.9375 Q465.4531,210.7188 465.875,212.1875 L463.4375,212.7656 Q463.2188,211.8125 462.5313,211.2656 Q461.8594,210.7188 460.875,210.7188 Q459.5156,210.7188 458.6719,211.7031 Q457.8438,212.6719 457.8438,214.8438 Q457.8438,217.1406 458.6719,218.125 Q459.5,219.1094 460.8281,219.1094 Q461.8125,219.1094 462.5156,218.4844 Q463.2188,217.8594 463.5156,216.5313 Z " fill="#000000"/><text fill="#000000" font-family="Verdana" font-size="14" lengthAdjust="spacing" textLength="116" x="478.25" y="220.5679">TaskAssignment</text><line style="stroke:#000000;stroke-width:1.0;" x1="413.5" x2="631.5" y1="229" y2="229"/><text fill="#000000" font-family="Verdana" font-size="14" lengthAdjust="spacing" textLength="78" x="418.5" y="247.0752">TaskID: int</text><text fill="#000000" font-family="Verdana" font-size="14" lengthAdjust="spacing" textLength="111" x="418.5" y="264.0898">AssignedTo: int</text><text fill="#000000" font-family="Verdana" font-size="14" lengthAdjust="spacing" textLength="169" x="418.5" y="281.1045">AssignedDate: datetime</text><text fill="#000000" font-family="Verdana" font-size="14" lengthAdjust="spacing" textLength="156" x="418.5" y="298.1191">dateStarted: datetime</text><text fill="#000000" font-family="Verdana" font-size="14" lengthAdjust="spacing" textLength="178" x="418.5" y="315.1338">dateCompleted: datetime</text><text fill="#000000" font-family="Verdana" font-size="14" lengthAdjust="spacing" textLength="208" x="418.5" y="332.1484">timeEstimatedStart: datetime</text><text fill="#000000" font-family="Verdana" font-size="14" lengthAdjust="spacing" textLength="199" x="418.5" y="349.1631">timeEstimatedEnd: datetime</text><text fill="#000000" font-family="Verdana" font-size="14" lengthAdjust="spacing" textLength="161" x="418.5" y="366.1777">TaskAssignmentID: int</text><line style="stroke:#000000;stroke-width:1.0;" x1="413.5" x2="631.5" y1="373.1172" y2="373.1172"/></g><!--class TaskState--><g id="elem_TaskState"><rect codeLine="57" fill="#FFFFFF" height="78.0293" id="TaskState" rx="2.5" ry="2.5" style="stroke:#000000;stroke-width:1.0;" width="224" x="667.5" y="252"/><ellipse cx="740.25" cy="266" fill="#FFFFFF" rx="9" ry="9" style="stroke:#000000;stroke-width:1.0;"/><path d="M743.0156,267.5313 L745.4063,268.2813 Q744.8594,270.2656 743.5781,271.2344 Q742.3125,272.2031 740.3438,272.2031 Q737.9219,272.2031 736.3594,270.5469 Q734.8125,268.8906 734.8125,266.0156 Q734.8125,262.9844 736.375,261.3125 Q737.9375,259.625 740.5,259.625 Q742.7344,259.625 744.125,260.9375 Q744.9531,261.7188 745.375,263.1875 L742.9375,263.7656 Q742.7188,262.8125 742.0313,262.2656 Q741.3594,261.7188 740.375,261.7188 Q739.0156,261.7188 738.1719,262.7031 Q737.3438,263.6719 737.3438,265.8438 Q737.3438,268.1406 738.1719,269.125 Q739,270.1094 740.3281,270.1094 Q741.3125,270.1094 742.0156,269.4844 Q742.7188,268.8594 743.0156,267.5313 Z " fill="#000000"/><text fill="#000000" font-family="Verdana" font-size="14" lengthAdjust="spacing" textLength="71" x="757.75" y="271.5679">TaskState</text><line style="stroke:#000000;stroke-width:1.0;" x1="668.5" x2="890.5" y1="280" y2="280"/><text fill="#000000" font-family="Verdana" font-size="14" lengthAdjust="spacing" textLength="116" x="673.5" y="298.0752">TaskStateID: int</text><line style="stroke:#000000;stroke-width:1.0;" x1="668.5" x2="890.5" y1="305.0146" y2="305.0146"/><text fill="#000000" font-family="Verdana" font-size="14" lengthAdjust="spacing" textLength="212" x="673.5" y="323.0898">TaskStateName: nvarchar(50)</text></g><!--class TaskStatusHistory--><g id="elem_TaskStatusHistory"><rect codeLine="61" fill="#FFFFFF" height="129.0732" id="TaskStatusHistory" rx="2.5" ry="2.5" style="stroke:#000000;stroke-width:1.0;" width="194" x="553.5" y="12"/><ellipse cx="582.7" cy="26" fill="#FFFFFF" rx="9" ry="9" style="stroke:#000000;stroke-width:1.0;"/><path d="M585.4656,27.5313 L587.8563,28.2813 Q587.3094,30.2656 586.0281,31.2344 Q584.7625,32.2031 582.7938,32.2031 Q580.3719,32.2031 578.8094,30.5469 Q577.2625,28.8906 577.2625,26.0156 Q577.2625,22.9844 578.825,21.3125 Q580.3875,19.625 582.95,19.625 Q585.1844,19.625 586.575,20.9375 Q587.4031,21.7188 587.825,23.1875 L585.3875,23.7656 Q585.1688,22.8125 584.4813,22.2656 Q583.8094,21.7188 582.825,21.7188 Q581.4656,21.7188 580.6219,22.7031 Q579.7938,23.6719 579.7938,25.8438 Q579.7938,28.1406 580.6219,29.125 Q581.45,30.1094 582.7781,30.1094 Q583.7625,30.1094 584.4656,29.4844 Q585.1688,28.8594 585.4656,27.5313 Z " fill="#000000"/><text fill="#000000" font-family="Verdana" font-size="14" lengthAdjust="spacing" textLength="130" x="598.3" y="31.5679">TaskStatusHistory</text><line style="stroke:#000000;stroke-width:1.0;" x1="554.5" x2="746.5" y1="40" y2="40"/><text fill="#000000" font-family="Verdana" font-size="14" lengthAdjust="spacing" textLength="116" x="559.5" y="58.0752">TaskStateID: int</text><text fill="#000000" font-family="Verdana" font-size="14" lengthAdjust="spacing" textLength="167" x="559.5" y="75.0898">ChangedDate: datetime</text><text fill="#000000" font-family="Verdana" font-size="14" lengthAdjust="spacing" textLength="159" x="559.5" y="92.1045">TaskAssignmentId: int</text><text fill="#000000" font-family="Verdana" font-size="14" lengthAdjust="spacing" textLength="175" x="559.5" y="109.1191">TaskStatusHistoryID: int</text><line style="stroke:#000000;stroke-width:1.0;" x1="554.5" x2="746.5" y1="116.0586" y2="116.0586"/><text fill="#000000" font-family="Verdana" font-size="14" lengthAdjust="spacing" textLength="182" x="559.5" y="134.1338">ChangedBy: nvarchar(50)</text></g><!--class User--><g id="elem_User"><rect codeLine="68" fill="#FFFFFF" height="163.1025" id="User" rx="2.5" ry="2.5" style="stroke:#000000;stroke-width:1.0;" width="181" x="240" y="449.5"/><ellipse cx="310.75" cy="463.5" fill="#FFFFFF" rx="9" ry="9" style="stroke:#000000;stroke-width:1.0;"/><path d="M313.5156,465.0313 L315.9063,465.7813 Q315.3594,467.7656 314.0781,468.7344 Q312.8125,469.7031 310.8438,469.7031 Q308.4219,469.7031 306.8594,468.0469 Q305.3125,466.3906 305.3125,463.5156 Q305.3125,460.4844 306.875,458.8125 Q308.4375,457.125 311,457.125 Q313.2344,457.125 314.625,458.4375 Q315.4531,459.2188 315.875,460.6875 L313.4375,461.2656 Q313.2188,460.3125 312.5313,459.7656 Q311.8594,459.2188 310.875,459.2188 Q309.5156,459.2188 308.6719,460.2031 Q307.8438,461.1719 307.8438,463.3438 Q307.8438,465.6406 308.6719,466.625 Q309.5,467.6094 310.8281,467.6094 Q311.8125,467.6094 312.5156,466.9844 Q313.2188,466.3594 313.5156,465.0313 Z " fill="#000000"/><text fill="#000000" font-family="Verdana" font-size="14" lengthAdjust="spacing" textLength="32" x="328.25" y="469.0679">User</text><line style="stroke:#000000;stroke-width:1.0;" x1="241" x2="420" y1="477.5" y2="477.5"/><text fill="#000000" font-family="Verdana" font-size="14" lengthAdjust="spacing" textLength="160" x="246" y="495.5752">DateCreated: datetime</text><text fill="#000000" font-family="Verdana" font-size="14" lengthAdjust="spacing" textLength="162" x="246" y="512.5898">DateModified: datetime</text><text fill="#000000" font-family="Verdana" font-size="14" lengthAdjust="spacing" textLength="71" x="246" y="529.6045">Active: bit</text><text fill="#000000" font-family="Verdana" font-size="14" lengthAdjust="spacing" textLength="43" x="246" y="546.6191">Id: int</text><line style="stroke:#000000;stroke-width:1.0;" x1="241" x2="420" y1="553.5586" y2="553.5586"/><text fill="#000000" font-family="Verdana" font-size="14" lengthAdjust="spacing" textLength="138" x="246" y="571.6338">Email: varchar(100)</text><text fill="#000000" font-family="Verdana" font-size="14" lengthAdjust="spacing" textLength="163" x="246" y="588.6484">Username: varchar(50)</text><text fill="#000000" font-family="Verdana" font-size="14" lengthAdjust="spacing" textLength="169" x="246" y="605.6631">Password: varchar(255)</text></g><!--class UserRoles--><g id="elem_UserRoles"><rect codeLine="77" fill="#FFFFFF" height="163.1025" id="UserRoles" rx="2.5" ry="2.5" style="stroke:#000000;stroke-width:1.0;" width="180" x="129.5" y="209.5"/><ellipse cx="180.75" cy="223.5" fill="#FFFFFF" rx="9" ry="9" style="stroke:#000000;stroke-width:1.0;"/><path d="M183.5156,225.0313 L185.9063,225.7813 Q185.3594,227.7656 184.0781,228.7344 Q182.8125,229.7031 180.8438,229.7031 Q178.4219,229.7031 176.8594,228.0469 Q175.3125,226.3906 175.3125,223.5156 Q175.3125,220.4844 176.875,218.8125 Q178.4375,217.125 181,217.125 Q183.2344,217.125 184.625,218.4375 Q185.4531,219.2188 185.875,220.6875 L183.4375,221.2656 Q183.2188,220.3125 182.5313,219.7656 Q181.8594,219.2188 180.875,219.2188 Q179.5156,219.2188 178.6719,220.2031 Q177.8438,221.1719 177.8438,223.3438 Q177.8438,225.6406 178.6719,226.625 Q179.5,227.6094 180.8281,227.6094 Q181.8125,227.6094 182.5156,226.9844 Q183.2188,226.3594 183.5156,225.0313 Z " fill="#000000"/><text fill="#000000" font-family="Verdana" font-size="14" lengthAdjust="spacing" textLength="70" x="198.25" y="229.0679">UserRoles</text><line style="stroke:#000000;stroke-width:1.0;" x1="130.5" x2="308.5" y1="237.5" y2="237.5"/><text fill="#000000" font-family="Verdana" font-size="14" lengthAdjust="spacing" textLength="75" x="135.5" y="255.5752">UserId: int</text><text fill="#000000" font-family="Verdana" font-size="14" lengthAdjust="spacing" textLength="67" x="135.5" y="272.5898">RolID: int</text><text fill="#000000" font-family="Verdana" font-size="14" lengthAdjust="spacing" textLength="151" x="135.5" y="289.6045">CreateDate: datetime</text><text fill="#000000" font-family="Verdana" font-size="14" lengthAdjust="spacing" textLength="162" x="135.5" y="306.6191">ModifiedDate: datetime</text><text fill="#000000" font-family="Verdana" font-size="14" lengthAdjust="spacing" textLength="43" x="135.5" y="323.6338">Id: int</text><line style="stroke:#000000;stroke-width:1.0;" x1="130.5" x2="308.5" y1="330.5732" y2="330.5732"/><text fill="#000000" font-family="Verdana" font-size="14" lengthAdjust="spacing" textLength="157" x="135.5" y="348.6484">CreateBy: varchar(50)</text><text fill="#000000" font-family="Verdana" font-size="14" lengthAdjust="spacing" textLength="168" x="135.5" y="365.6631">ModifiedBy: varchar(50)</text></g><!--link Task to Invoice--><g id="link_Task_Invoice"><path codeLine="88" d="M591.5,621.37 C591.5,639.86 591.5,642.07 591.5,662.88 " fill="none" id="Task-to-Invoice" style="stroke:#595959;stroke-width:1.0;"/><polygon fill="none" points="591.5,680.88,597.5,662.88,585.5,662.88,591.5,680.88" style="stroke:#595959;stroke-width:1.0;"/><text fill="#000000" font-family="Verdana" font-size="13" lengthAdjust="spacing" textLength="116" x="474.5" y="648.1898">Invoice:InvoiceID</text></g><!--link TaskAssignment to Task--><g id="link_TaskAssignment_Task"><path codeLine="89" d="M544.25,381.05 C544.25,400.6 544.25,403.29 544.25,422.84 " fill="none" id="TaskAssignment-to-Task" style="stroke:#595959;stroke-width:1.0;"/><polygon fill="none" points="544.25,440.84,550.25,422.84,538.25,422.84,544.25,440.84" style="stroke:#595959;stroke-width:1.0;"/><text fill="#000000" font-family="Verdana" font-size="13" lengthAdjust="spacing" textLength="45" x="498.25" y="408.0198">TaskID</text></g><!--link TaskAssignment to User--><g id="link_TaskAssignment_User"><path codeLine="90" d="M416.75,381.05 C416.75,403.4 416.75,409.22 416.75,431.15 " fill="none" id="TaskAssignment-to-User" style="stroke:#595959;stroke-width:1.0;"/><polygon fill="none" points="416.75,449.15,422.75,431.15,410.75,431.15,416.75,449.15" style="stroke:#595959;stroke-width:1.0;"/><text fill="#000000" font-family="Verdana" font-size="13" lengthAdjust="spacing" textLength="94" x="321.75" y="412.1698">AssignedTo:Id</text></g><!--link TaskStatusHistory to TaskAssignment--><g id="link_TaskStatusHistory_TaskAssignment"><path codeLine="91" d="M593,141.15 C593,159.9 593,162.72 593,182.74 " fill="none" id="TaskStatusHistory-to-TaskAssignment" style="stroke:#595959;stroke-width:1.0;"/><polygon fill="none" points="593,200.74,599,182.74,587,182.74,593,200.74" style="stroke:#595959;stroke-width:1.0;"/><text fill="#000000" font-family="Verdana" font-size="13" lengthAdjust="spacing" textLength="245" x="347" y="168.0098">TaskAssignmentId:TaskAssignmentID</text></g><!--link TaskStatusHistory to TaskState--><g id="link_TaskStatusHistory_TaskState"><path codeLine="92" d="M707.5,141.15 C707.5,177.17 707.5,202.84 707.5,233.73 " fill="none" id="TaskStatusHistory-to-TaskState" style="stroke:#595959;stroke-width:1.0;"/><polygon fill="none" points="707.5,251.73,713.5,233.73,701.5,233.73,707.5,251.73" style="stroke:#595959;stroke-width:1.0;"/><text fill="#000000" font-family="Verdana" font-size="13" lengthAdjust="spacing" textLength="82" x="624.5" y="193.5098">TaskStateID</text></g><!--link UserRoles to Rol--><g id="link_UserRoles_Rol"><path codeLine="93" d="M167.25,372.59 C167.25,403.16 167.25,419.46 167.25,448.3 " fill="none" id="UserRoles-to-Rol" style="stroke:#595959;stroke-width:1.0;"/><polygon fill="none" points="167.25,466.3,173.25,448.3,161.25,448.3,167.25,466.3" style="stroke:#595959;stroke-width:1.0;"/><text fill="#000000" font-family="Verdana" font-size="13" lengthAdjust="spacing" textLength="52" x="114.25" y="416.5098">RolID:Id</text></g><!--link UserRoles to User--><g id="link_UserRoles_User"><path codeLine="94" d="M274.75,372.59 C274.75,397.32 274.75,406.49 274.75,431.23 " fill="none" id="UserRoles-to-User" style="stroke:#595959;stroke-width:1.0;"/><polygon fill="none" points="274.75,449.23,280.75,431.23,268.75,431.23,274.75,449.23" style="stroke:#595959;stroke-width:1.0;"/><text fill="#000000" font-family="Verdana" font-size="13" lengthAdjust="spacing" textLength="61" x="212.75" y="407.9798">UserId:Id</text></g><!--SRC=[hLLTQzim57tthz2obmvQQ38okhobjiiCYPr6pjeoDb1ZhH6r9IEf6M7ily-o75kMdDB1KaYiUtNFkL_7VITtkC2Wp16XdcGba0myCYbP0JB2yLOIHZtnJ6Y9E2f0JYYMXn83nkMEUTusHqA0YEuPsMBmsmC0m3HEPe1GgGxN2RovRqzm0TE7rGniTuYVZJyeKnW7wTKCx17NnilQ6YG-tFJkhMy2N-4UBqxqnKLiaC44Zjl3QXudayikODeWm_6LOqpMjmz6oj7IJplGrMtQETFrlHyOyNNu9lRX36HuImgKduqdvnyRysBO3CF5WFqktIm7pFucNfhzqHd3rTSeW6vrIEAGIdweWAf7IGgip97mML7cME9i1Xv9NKapioZGjVrfHhbckHvZZ0hiucEnvQHKIs6COZfjoNsEKSrYqYl7acNa9x4zKTPdJv5urlGz9cfJDJGAk0_ehyDv6WRN1oEeoRqfk1rb9EP2a2Tgz4JH-op3pfhT8Ovtx4NWgey5fj90_zHCHCNQpLGsJQA2T67clUfup25bZicjJZr3YRZJOVLiZDXqgTzGLD-gONNmA_wGMj7z2eRggo0bxaghZtftx06qxbCmB-8B4PBnWmLdjClV8VeqE7Zj61gyLKFMYTdcjHFR2CnrBc61IExAK5sWGq9PLU6_6C_-YqhcrLjuZplbPcwMbMonqAcger5avJ7xLpEhBba97va7N3h6RVannFLq6NfUBUd-v-BR- -bdzNTU_zlvVl6ZLQTnQmP6HycsxwgHPqdg59pBMi5fwRqPevw-ZM7eDSeqL7zrJwRJPspIwUsbBRP_WjSwjAfjv3FokXrvTGhgxU-Kh3T8LVj6bC76DMjPmVm5]--></g></svg>